<svg width="420" height="420" viewBox="0 0 420 420" fill="none" xmlns="http://www.w3.org/2000/svg">
<g id="Group 4">
<circle id="Ellipse 1" cx="210" cy="210" r="210" fill="#F47C7C"/>
<g id="vitura">
<path id="Vector" d="M332.109 254.336C327.305 254.336 323.379 253.066 320.332 250.527C317.324 247.949 315.82 244.414 315.82 239.922C315.82 237.578 316.348 235.449 317.402 233.535C318.457 231.582 319.863 229.961 321.621 228.672C325.254 225.977 329.473 223.73 334.277 221.934C338.965 220.254 343.184 218.32 346.934 216.133C348.652 215.117 350.039 213.887 351.094 212.441C352.148 210.957 352.676 209.316 352.676 207.52C352.676 203.066 351.582 199.766 349.395 197.617C347.207 195.43 344.141 194.336 340.195 194.336C337.422 194.336 334.785 194.785 332.285 195.684C329.785 196.543 327.852 197.734 326.484 199.258C328.984 199.258 330.957 199.941 332.402 201.309C333.887 202.637 334.629 204.219 334.629 206.055C334.629 208.516 333.828 210.527 332.227 212.09C330.625 213.613 328.711 214.375 326.484 214.375C324.18 214.375 322.168 213.574 320.449 211.973C318.73 210.332 317.871 207.969 317.871 204.883C317.871 201.484 319.883 197.949 323.906 194.277C325.859 192.52 328.477 191.074 331.758 189.941C335.078 188.77 338.73 188.184 342.715 188.184C345.918 188.184 348.828 188.535 351.445 189.238C354.062 189.941 356.445 191.094 358.594 192.695C360.703 194.258 362.344 196.445 363.516 199.258C364.688 202.07 365.273 205.391 365.273 209.219V236.172C365.273 237.695 365.449 239.16 365.801 240.566C366.191 241.934 366.934 243.184 368.027 244.316C369.16 245.449 370.547 246.016 372.188 246.016C377.148 246.016 379.629 242.539 379.629 235.586L379.81 232.684L386.016 233.359V234.414C386.016 242.227 384.414 247.578 381.211 250.469C379.648 251.875 377.949 252.871 376.113 253.457C374.277 254.043 372.129 254.336 369.668 254.336C367.051 254.336 364.609 253.828 362.344 252.812C360.078 251.797 358.145 250.156 356.543 247.891C354.863 245.586 353.887 242.852 353.613 239.688C351.934 243.945 349.082 247.461 345.059 250.234C341.074 252.969 336.758 254.336 332.109 254.336ZM335.156 245.898C337.734 245.898 340.391 245.137 343.125 243.613C345.898 242.051 348.184 240.098 349.98 237.754C351.777 235.449 352.676 233.203 352.676 231.016V218.535C350.176 220.996 347.285 223.203 344.004 225.156C340.762 227.109 338.105 228.555 336.035 229.492C333.926 230.43 332.109 231.719 330.586 233.359C329.062 235 328.301 236.992 328.301 239.336C328.301 241.289 328.867 242.871 330 244.082C331.172 245.293 332.891 245.898 335.156 245.898Z" fill="#FFF7E8"/>
<path id="Vector_2" d="M263.82 253.754V248.73L275.246 247.191V197.445H263.82V190.883L286.027 189.887L287.609 203.598C288.586 200.277 290.363 197.152 292.941 194.223C294.309 192.699 295.988 191.488 297.98 190.59C299.973 189.652 302.141 189.184 304.484 189.184C307.648 189.184 310.363 190.062 312.629 191.82C314.934 193.578 316.086 196.059 316.086 199.262C316.086 202.309 315.188 204.672 313.391 206.352C311.633 208.031 309.543 208.871 307.121 208.871C304.855 208.871 302.902 208.168 301.262 206.762C299.621 205.355 298.801 203.461 298.801 201.078C298.801 200.258 298.996 199.418 299.387 198.559C299.777 197.699 300.168 197.035 300.559 196.566L301.203 195.922C298.859 195.922 296.789 196.664 294.992 198.148C293.234 199.594 291.848 201.527 290.832 203.949C288.84 208.793 287.844 214.164 287.844 220.062V247.191H301.027V253.754H263.82Z" fill="#FFF7E8"/>
<path id="Vector_3" d="M237.676 253.684V241.641C232.754 250.391 225.703 254.766 216.523 254.766C209.922 254.766 204.98 252.754 201.699 248.73C198.457 244.707 196.836 239.16 196.836 232.09V196.875H185.82V190.312H209.434V231.973C209.434 237.168 210.254 240.918 211.895 243.223C213.574 245.488 216.152 246.621 219.629 246.621C222.207 246.621 224.863 245.879 227.598 244.395C230.332 242.871 232.617 240.938 234.453 238.594C236.328 236.211 237.266 233.75 237.266 231.211V196.875H226.602V190.312H249.922V246.562L263.82 248.73V253.758L237.676 253.684Z" fill="#FFF7E8"/>
<path id="Vector_4" d="M166.629 254.766C163.309 254.766 160.203 254.062 157.312 252.656C154.422 251.25 152.078 249.16 150.281 246.387C148.523 243.574 147.645 240.078 147.645 235.898V196.875L132.82 196.992V195.184C135.828 194.285 141.434 191.621 143.895 189.316C146.355 186.973 148.309 184.453 149.754 181.758C150.965 179.57 151.844 177.852 152.391 176.602C152.938 175.312 153.484 174.023 154.031 172.734C154.578 171.445 155.418 169.707 156.551 167.52C157.371 165.84 158.094 165 158.719 165C159.734 165 160.242 165.684 160.242 167.051V190.312H185.82V196.992H160.242V236.25C160.242 239.688 161.023 242.266 162.586 243.984C164.148 245.703 166.219 246.562 168.797 246.562C171.922 246.562 174.285 245.547 175.887 243.516C177.488 241.445 178.289 237.832 178.289 232.676L185.291 233.367L185.32 231.445C185.32 239.18 183.934 245 181.16 248.906C178.426 252.812 173.582 254.766 166.629 254.766Z" fill="#FFF7E8"/>
<path id="Vector_5" d="M108.938 253.184V246.328H120.246V196.875H108.82V190.312H132.844V246.328H144.328V253.184H108.938ZM125.578 183.18C123.195 183.18 121.145 182.32 119.426 180.602C117.746 178.883 116.906 176.852 116.906 174.508C116.906 172.086 117.746 170.035 119.426 168.355C121.145 166.637 123.195 165.777 125.578 165.777C127.922 165.777 129.953 166.637 131.672 168.355C133.43 170.074 134.309 172.125 134.309 174.508C134.309 176.852 133.43 178.883 131.672 180.602C129.953 182.32 127.922 183.18 125.578 183.18Z" fill="#FFF7E8"/>
<path id="Vector_6" d="M71.3789 255.469C69.1914 255.469 67.375 254.766 65.9297 253.359C64.5234 251.992 63.2539 249.805 62.1211 246.797L43.7812 196.875H33V190.312H68.3906V196.875H57.7266L73.1953 243.926L88.1953 196.875H78.2344V190.312H109.32V196.875H98.1562L80.8711 246.445C79.7773 249.648 78.4883 251.953 77.0039 253.359C75.5195 254.766 73.6445 255.469 71.3789 255.469Z" fill="#FFF7E8"/>
</g>
</g>
</svg>
