<svg width="350" height="91" viewBox="0 0 350 91" fill="none" xmlns="http://www.w3.org/2000/svg">
<g id="vitura">
<path id="Vector" d="M295.109 89.3359C290.305 89.3359 286.379 88.0664 283.332 85.5273C280.324 82.9492 278.82 79.4141 278.82 74.9219C278.82 72.5781 279.348 70.4492 280.402 68.5352C281.457 66.582 282.863 64.9609 284.621 63.6719C288.254 60.9766 292.473 58.7305 297.277 56.9336C301.965 55.2539 306.184 53.3203 309.934 51.1328C311.652 50.1172 313.039 48.8867 314.094 47.4414C315.148 45.957 315.676 44.3164 315.676 42.5195C315.676 38.0664 314.582 34.7656 312.395 32.6172C310.207 30.4297 307.141 29.3359 303.195 29.3359C300.422 29.3359 297.785 29.7852 295.285 30.6836C292.785 31.543 290.852 32.7344 289.484 34.2578C291.984 34.2578 293.957 34.9414 295.402 36.3086C296.887 37.6367 297.629 39.2188 297.629 41.0547C297.629 43.5156 296.828 45.5273 295.227 47.0898C293.625 48.6133 291.711 49.375 289.484 49.375C287.18 49.375 285.168 48.5742 283.449 46.9727C281.73 45.332 280.871 42.9688 280.871 39.8828C280.871 36.4844 282.883 32.9492 286.906 29.2773C288.859 27.5195 291.477 26.0742 294.758 24.9414C298.078 23.7695 301.73 23.1836 305.715 23.1836C308.918 23.1836 311.828 23.5352 314.445 24.2383C317.062 24.9414 319.445 26.0938 321.594 27.6953C323.703 29.2578 325.344 31.4453 326.516 34.2578C327.688 37.0703 328.273 40.3906 328.273 44.2188V71.1719C328.273 72.6953 328.449 74.1602 328.801 75.5664C329.191 76.9336 329.934 78.1836 331.027 79.3164C332.16 80.4492 333.547 81.0156 335.188 81.0156C340.148 81.0156 342.629 77.5391 342.629 70.5859L342.81 67.6836L349.016 68.3594V69.4141C349.016 77.2266 347.414 82.5781 344.211 85.4688C342.648 86.875 340.949 87.8711 339.113 88.457C337.277 89.043 335.129 89.3359 332.668 89.3359C330.051 89.3359 327.609 88.8281 325.344 87.8125C323.078 86.7969 321.145 85.1562 319.543 82.8906C317.863 80.5859 316.887 77.8516 316.613 74.6875C314.934 78.9453 312.082 82.4609 308.059 85.2344C304.074 87.9688 299.758 89.3359 295.109 89.3359ZM298.156 80.8984C300.734 80.8984 303.391 80.1367 306.125 78.6133C308.898 77.0508 311.184 75.0977 312.98 72.7539C314.777 70.4492 315.676 68.2031 315.676 66.0156V53.5352C313.176 55.9961 310.285 58.2031 307.004 60.1562C303.762 62.1094 301.105 63.5547 299.035 64.4922C296.926 65.4297 295.109 66.7188 293.586 68.3594C292.062 70 291.301 71.9922 291.301 74.3359C291.301 76.2891 291.867 77.8711 293 79.082C294.172 80.293 295.891 80.8984 298.156 80.8984Z" fill="black"/>
<path id="Vector_2" d="M226.82 88.7539V83.7305L238.246 82.1914V32.4453H226.82V25.8828L249.027 24.8867L250.609 38.5977C251.586 35.2773 253.363 32.1523 255.941 29.2227C257.309 27.6992 258.988 26.4883 260.98 25.5898C262.973 24.6523 265.141 24.1836 267.484 24.1836C270.648 24.1836 273.363 25.0625 275.629 26.8203C277.934 28.5781 279.086 31.0586 279.086 34.2617C279.086 37.3086 278.188 39.6719 276.391 41.3516C274.633 43.0312 272.543 43.8711 270.121 43.8711C267.855 43.8711 265.902 43.168 264.262 41.7617C262.621 40.3555 261.801 38.4609 261.801 36.0781C261.801 35.2578 261.996 34.418 262.387 33.5586C262.777 32.6992 263.168 32.0352 263.559 31.5664L264.203 30.9219C261.859 30.9219 259.789 31.6641 257.992 33.1484C256.234 34.5938 254.848 36.5273 253.832 38.9492C251.84 43.793 250.844 49.1641 250.844 55.0625V82.1914H264.027V88.7539H226.82Z" fill="black"/>
<path id="Vector_3" d="M200.676 88.6836V76.6406C195.754 85.3906 188.703 89.7656 179.523 89.7656C172.922 89.7656 167.98 87.7539 164.699 83.7305C161.457 79.707 159.836 74.1602 159.836 67.0898V31.875H155H148.82V25.3125H172.434V66.9727C172.434 72.168 173.254 75.918 174.895 78.2227C176.574 80.4883 179.152 81.6211 182.629 81.6211C185.207 81.6211 187.863 80.8789 190.598 79.3945C193.332 77.8711 195.617 75.9375 197.453 73.5938C199.328 71.2109 200.266 68.75 200.266 66.2109V31.875H189.602V25.3125H212.922V81.5625L226.82 83.7305V88.7578L200.676 88.6836Z" fill="black"/>
<path id="Vector_4" d="M133.629 89.7656C130.309 89.7656 127.203 89.0625 124.312 87.6562C121.422 86.25 119.078 84.1602 117.281 81.3867C115.523 78.5742 114.645 75.0781 114.645 70.8984V31.875L99.8203 31.9922V30.1836C102.828 29.2852 108.434 26.6211 110.895 24.3164C113.355 21.9727 115.309 19.4531 116.754 16.7578C117.965 14.5703 118.844 12.8516 119.391 11.6016C119.938 10.3125 120.484 9.02344 121.031 7.73438C121.578 6.44531 122.418 4.70703 123.551 2.51953C124.371 0.839844 125.094 0 125.719 0C126.734 0 127.242 0.683594 127.242 2.05078V25.3125H152.82V31.9922H127.242V71.25C127.242 74.6875 128.023 77.2656 129.586 78.9844C131.148 80.7031 133.219 81.5625 135.797 81.5625C138.922 81.5625 141.285 80.5469 142.887 78.5156C144.488 76.4453 145.289 72.832 145.289 67.6758L152.291 68.3667L152.32 66.4453C152.32 74.1797 150.934 80 148.16 83.9062C145.426 87.8125 140.582 89.7656 133.629 89.7656Z" fill="black"/>
<path id="Vector_5" d="M75.9375 88.1836V81.3281H87.2461V31.875H75.8203V25.3125H99.8438V81.3281H111.328V88.1836H75.9375ZM92.5781 18.1797C90.1953 18.1797 88.1445 17.3203 86.4258 15.6016C84.7461 13.8828 83.9062 11.8516 83.9062 9.50781C83.9062 7.08594 84.7461 5.03516 86.4258 3.35547C88.1445 1.63672 90.1953 0.777344 92.5781 0.777344C94.9219 0.777344 96.9531 1.63672 98.6719 3.35547C100.43 5.07422 101.309 7.125 101.309 9.50781C101.309 11.8516 100.43 13.8828 98.6719 15.6016C96.9531 17.3203 94.9219 18.1797 92.5781 18.1797Z" fill="black"/>
<path id="Vector_6" d="M38.3789 90.4688C36.1914 90.4688 34.375 89.7656 32.9297 88.3594C31.5234 86.9922 30.2539 84.8047 29.1211 81.7969L10.7812 31.875H0V25.3125H35.3906V31.875H24.7266L40.1953 78.9258L55.1953 31.875H45.2344V25.3125H76.3203V31.875H65.1562L47.8711 81.4453C46.7773 84.6484 45.4883 86.9531 44.0039 88.3594C42.5195 89.7656 40.6445 90.4688 38.3789 90.4688Z" fill="black"/>
</g>
</svg>
