<svg width="354" height="92" viewBox="0 0 354 92" fill="none" xmlns="http://www.w3.org/2000/svg">
<g id="vitura">
<path id="Vector" d="M299.289 90.1523C294.484 90.1523 290.559 88.8828 287.512 86.3438C284.504 83.7656 283 80.2305 283 75.7383C283 73.3945 283.527 71.2656 284.582 69.3516C285.637 67.3984 287.043 65.7773 288.801 64.4883C292.434 61.793 296.652 59.5469 301.457 57.75C306.145 56.0703 310.363 54.1367 314.113 51.9492C315.832 50.9336 317.219 49.7031 318.273 48.2578C319.328 46.7734 319.855 45.1328 319.855 43.3359C319.855 38.8828 318.762 35.582 316.574 33.4336C314.387 31.2461 311.32 30.1523 307.375 30.1523C304.602 30.1523 301.965 30.6016 299.465 31.5C296.965 32.3594 295.031 33.5508 293.664 35.0742C296.164 35.0742 298.137 35.7578 299.582 37.125C301.066 38.4531 301.809 40.0352 301.809 41.8711C301.809 44.332 301.008 46.3438 299.406 47.9062C297.805 49.4297 295.891 50.1914 293.664 50.1914C291.359 50.1914 289.348 49.3906 287.629 47.7891C285.91 46.1484 285.051 43.7852 285.051 40.6992C285.051 37.3008 287.062 33.7656 291.086 30.0938C293.039 28.3359 295.656 26.8906 298.938 25.7578C302.258 24.5859 305.91 24 309.895 24C313.098 24 316.008 24.3516 318.625 25.0547C321.242 25.7578 323.625 26.9102 325.773 28.5117C327.883 30.0742 329.523 32.2617 330.695 35.0742C331.867 37.8867 332.453 41.207 332.453 45.0352V71.9883C332.453 73.5117 332.629 74.9766 332.98 76.3828C333.371 77.75 334.113 79 335.207 80.1328C336.34 81.2656 337.727 81.832 339.367 81.832C344.328 81.832 346.809 78.3555 346.809 71.4023L346.99 68.5L353.195 69.1758V70.2305C353.195 78.043 351.594 83.3945 348.391 86.2852C346.828 87.6914 345.129 88.6875 343.293 89.2734C341.457 89.8594 339.309 90.1523 336.848 90.1523C334.23 90.1523 331.789 89.6445 329.523 88.6289C327.258 87.6133 325.324 85.9727 323.723 83.707C322.043 81.4023 321.066 78.668 320.793 75.5039C319.113 79.7617 316.262 83.2773 312.238 86.0508C308.254 88.7852 303.938 90.1523 299.289 90.1523ZM302.336 81.7148C304.914 81.7148 307.57 80.9531 310.305 79.4297C313.078 77.8672 315.363 75.9141 317.16 73.5703C318.957 71.2656 319.855 69.0195 319.855 66.832V54.3516C317.355 56.8125 314.465 59.0195 311.184 60.9727C307.941 62.9258 305.285 64.3711 303.215 65.3086C301.105 66.2461 299.289 67.5352 297.766 69.1758C296.242 70.8164 295.48 72.8086 295.48 75.1523C295.48 77.1055 296.047 78.6875 297.18 79.8984C298.352 81.1094 300.07 81.7148 302.336 81.7148Z" fill="black"/>
<path id="Vector_2" d="M231 89.5703V84.5469L242.426 83.0078V33.2617H231V26.6992L253.207 25.7031L254.789 39.4141C255.766 36.0938 257.543 32.9688 260.121 30.0391C261.488 28.5156 263.168 27.3047 265.16 26.4062C267.152 25.4688 269.32 25 271.664 25C274.828 25 277.543 25.8789 279.809 27.6367C282.113 29.3945 283.266 31.875 283.266 35.0781C283.266 38.125 282.367 40.4883 280.57 42.168C278.812 43.8477 276.723 44.6875 274.301 44.6875C272.035 44.6875 270.082 43.9844 268.441 42.5781C266.801 41.1719 265.98 39.2773 265.98 36.8945C265.98 36.0742 266.176 35.2344 266.566 34.375C266.957 33.5156 267.348 32.8516 267.738 32.3828L268.383 31.7383C266.039 31.7383 263.969 32.4805 262.172 33.9648C260.414 35.4102 259.027 37.3438 258.012 39.7656C256.02 44.6094 255.023 49.9805 255.023 55.8789V83.0078H268.207V89.5703H231Z" fill="black"/>
<path id="Vector_3" d="M204.855 89.5V77.457C199.934 86.207 192.883 90.582 183.703 90.582C177.102 90.582 172.16 88.5703 168.879 84.5469C165.637 80.5234 164.016 74.9766 164.016 67.9062V32.6914H153V26.1289H176.613V67.7891C176.613 72.9844 177.434 76.7344 179.074 79.0391C180.754 81.3047 183.332 82.4375 186.809 82.4375C189.387 82.4375 192.043 81.6953 194.777 80.2109C197.512 78.6875 199.797 76.7539 201.633 74.4102C203.508 72.0273 204.445 69.5664 204.445 67.0273V32.6914H193.781V26.1289H217.102V82.3789L231 84.5469V89.5742L204.855 89.5Z" fill="black"/>
<path id="Vector_4" d="M133.809 90.582C130.488 90.582 127.383 89.8789 124.492 88.4727C121.602 87.0664 119.258 84.9766 117.461 82.2031C115.703 79.3906 114.824 75.8945 114.824 71.7148V32.6914L100 32.8086V31C103.008 30.1016 108.613 27.4375 111.074 25.1328C113.535 22.7891 115.488 20.2695 116.934 17.5742C118.145 15.3867 119.023 13.668 119.57 12.418C120.117 11.1289 120.664 9.83984 121.211 8.55078C121.758 7.26172 122.598 5.52344 123.73 3.33594C124.551 1.65625 125.273 0.816406 125.898 0.816406C126.914 0.816406 127.422 1.5 127.422 2.86719V26.1289H153V32.8086H127.422V72.0664C127.422 75.5039 128.203 78.082 129.766 79.8008C131.328 81.5195 133.398 82.3789 135.977 82.3789C139.102 82.3789 141.465 81.3633 143.066 79.332C144.668 77.2617 145.469 73.6484 145.469 68.4922L152.47 69.1831L152.5 67.2617C152.5 74.9961 151.113 80.8164 148.34 84.7227C145.605 88.6289 140.762 90.582 133.809 90.582Z" fill="black"/>
<path id="Vector_5" d="M76.1172 89V82.1445H87.4258V32.6914H76V26.1289H100.023V82.1445H111.508V89H76.1172ZM92.7578 18.9961C90.375 18.9961 88.3242 18.1367 86.6055 16.418C84.9258 14.6992 84.0859 12.668 84.0859 10.3242C84.0859 7.90234 84.9258 5.85156 86.6055 4.17188C88.3242 2.45312 90.375 1.59375 92.7578 1.59375C95.1016 1.59375 97.1328 2.45312 98.8516 4.17188C100.609 5.89062 101.488 7.94141 101.488 10.3242C101.488 12.668 100.609 14.6992 98.8516 16.418C97.1328 18.1367 95.1016 18.9961 92.7578 18.9961Z" fill="black"/>
<path id="Vector_6" d="M38.5586 91.2852C36.3711 91.2852 34.5547 90.582 33.1094 89.1758C31.7031 87.8086 30.4336 85.6211 29.3008 82.6133L10.9609 32.6914H0.179688V26.1289H35.5703V32.6914H24.9062L40.375 79.7422L55.375 32.6914H45.4141V26.1289H76.5V32.6914H65.3359L48.0508 82.2617C46.957 85.4648 45.668 87.7695 44.1836 89.1758C42.6992 90.582 40.8242 91.2852 38.5586 91.2852Z" fill="black"/>
</g>
</svg>
